<svg width="134" height="165" viewBox="0 0 134 165" fill="none" xmlns="http://www.w3.org/2000/svg">
<g clip-path="url(#clip0_48_1009)">
<path d="M25.5444 77.767C24.7269 83.716 20.2482 70.5459 19.9417 71.2568C17.6257 95.1837 17.83 117.764 24.2842 140.587C25.6125 145.264 27.2984 150.034 30.517 153.439C33.8718 156.993 38.4697 158.677 42.9485 160.08C51.5654 162.793 62.3791 164.645 71.3025 164.981C79.2723 165.281 90.9715 143.056 91.3291 141.017C91.7038 138.884 90.8864 136.733 90.1711 134.713C86.1351 123.338 84.7217 111.085 83.8362 98.9065C82.8995 86.0918 65.819 91.2364 65.819 91.2364C65.819 91.2364 26.498 70.6394 25.5273 77.7296L25.5444 77.767Z" fill="#F6AD69"/>
<path d="M81.997 61.716C63.8606 54.9813 83.8021 87.8316 64.661 87.682C63.5541 87.682 21.0827 70.602 19.9757 70.7517C19.5841 73.4456 19.7884 70.8078 19.1924 79.9932C22.2066 81.4337 25.5273 82.2942 28.7118 83.2857C38.8444 86.4473 48.466 91.4048 58.7007 94.1548C61.2551 94.8469 63.8777 95.3894 66.4832 94.9966C69.0035 94.6037 71.3366 93.3503 73.6015 92.1156C77.0925 90.2262 80.5835 88.318 83.9213 86.1292C84.5173 78.7959 80.6176 73.4269 82.6952 66.3554C80.8049 65.1582 84.0746 62.483 82.014 61.716H81.997Z" fill="#FFBF9F"/>
<path d="M103.658 25.835C105.123 22.6922 106.775 18.9881 105.344 15.8265C104.357 13.6752 102.211 12.5153 100.184 11.5799C93.2704 8.41837 75.679 2.9932 68.3052 1.55273C62.6004 0.448985 54.9371 -1.44047 49.5558 1.72109C46.9162 3.27382 44.7365 5.63096 42.6248 7.96939C36.4772 14.7976 30.4147 22.0374 26.9066 30.8299C24.2841 37.3776 23.1772 44.5238 22.2065 51.614C21.2869 58.3674 20.4695 65.1582 19.8564 71.9864C21.5424 72.6599 23.3134 73.3146 25.1356 74.0068C36.3239 78.3657 47.5974 82.4626 58.939 86.3163C61.3402 87.1395 63.8265 87.9439 66.3469 87.7007C69.327 87.4201 72.0177 85.6803 74.5891 83.9779C78.0972 81.6582 81.6052 79.3572 85.1133 77C88.2637 59.2466 96.0462 42.2976 103.675 25.7976L103.658 25.835Z" fill="#438342"/>
<path d="M91.329 141.036C91.7036 138.903 90.8862 136.752 90.171 134.731C86.135 123.357 84.7215 111.104 83.836 98.9252C83.2911 91.4796 83.836 84.2024 85.0962 77.0374C88.2466 59.284 64.15 74.5119 64.6608 87.682C64.9503 95.034 65.5634 102.386 66.2105 109.682C67.7772 127.192 69.5313 144.796 74.2655 161.595C74.4698 162.344 74.6912 163.092 74.9296 163.84C82.4055 159.276 91.0054 142.776 91.3119 141.036H91.329Z" fill="#FFCEB6"/>
<path d="M70.7234 76.1769C69.0375 86.2041 64.2522 77.3742 64.6609 87.6633C64.7631 90.1888 64.8993 92.733 65.0696 95.2585C65.5464 95.2585 66.0062 95.2024 66.483 95.1276C69.0034 94.7347 71.3364 93.4813 73.6013 92.2466C77.0924 90.3571 80.5834 88.449 83.9212 86.2602C83.9212 86.2602 83.9212 86.2228 83.9212 86.2041C84.0745 84.3895 84.2788 82.5935 84.5172 80.7976C84.5172 80.7976 84.5172 80.7602 84.5172 80.7415C84.5853 80.3112 84.6364 79.8997 84.7045 79.4694C84.7045 79.432 84.7045 79.3946 84.7216 79.3571C84.7897 78.9456 84.8578 78.534 84.9259 78.1224C84.9259 78.085 84.9259 78.0663 84.9259 78.0289C84.977 77.6922 85.0451 77.3554 85.0962 77.0187C85.4368 75.1293 81.1965 78.3095 81.6222 76.4388C81.6222 76.4014 82.3204 73.7823 82.3375 73.7636C82.4396 73.352 82.5759 72.6412 82.661 72.2296C82.661 72.1922 81.4179 71.7432 81.4349 71.7058C81.8777 69.9286 78.7953 72.267 79.3062 70.5085C77.4159 69.3112 84.0404 62.5952 81.9628 61.8282C76.7688 59.9014 76.0366 77.4303 70.6893 76.1582L70.7234 76.1769Z" fill="#E98427"/>
<path d="M74.5891 84.0153C78.0972 81.6956 81.6053 79.3946 85.1133 77.0374C85.1133 77.0374 85.1133 77.0187 85.1133 77C88.2808 59.2653 96.0462 42.3163 103.675 25.835C104.442 24.1701 105.276 22.3367 105.668 20.5221C106.008 18.9133 106.025 17.3231 105.344 15.8265C104.748 14.517 103.709 13.5629 102.534 12.8146C102.739 14.0119 102.705 15.2653 102.296 16.631C101.308 19.9048 98.8902 22.4116 96.4039 24.5068C92.0613 28.1361 87.1909 30.9983 82.048 32.9439C79.4255 33.9354 76.6838 34.7211 74.4359 36.4796C70.8597 39.2857 69.1227 44.0935 67.9306 48.733C64.678 61.3793 64.1501 74.5306 64.678 87.7381C65.24 87.7755 65.7849 87.7755 66.3469 87.7381C69.327 87.4575 72.0177 85.7177 74.5891 84.0153Z" fill="#75C973"/>
<path opacity="0.17" d="M58.8198 30.5493C62.3959 31.3725 66.0403 32.102 69.6846 31.8963C74.2995 31.6531 78.7442 29.9881 83.0356 28.0986C87.9742 25.9473 92.8616 23.4779 96.9828 19.8112C97.8853 19.0255 98.7538 18.1463 99.2306 16.9864C99.7075 15.8452 99.7075 14.3674 98.9241 13.432C98.9071 14.966 98.1237 16.3878 97.0849 17.398C96.0461 18.4082 94.7689 19.0816 93.4917 19.6616C88.1956 22.0935 82.5248 23.3844 76.854 24.3571C66.0062 26.1905 54.5965 26.7704 44.3958 22.318C42.0968 21.3265 39.8319 20.0544 37.3797 19.7925C36.6474 19.7177 35.8811 19.7364 35.251 20.148C32.6285 21.8129 36.7326 23.1225 37.8225 23.6463C40.0363 24.6939 42.3182 25.6293 44.6172 26.4711C49.2662 28.1548 54.0175 29.4456 58.8027 30.5493H58.8198Z" fill="white"/>
<path d="M21.3892 25.648C21.3551 25.835 21.3381 26.0408 21.3892 26.2279C21.5935 26.8452 22.3769 26.8078 22.9559 26.6582C25.919 25.9099 28.9503 25.4235 31.9985 25.2364C33.8036 25.1241 35.6428 25.1054 37.3798 24.5255C37.7034 24.4133 38.061 24.2262 38.1121 23.8707C38.1802 23.3844 37.6523 23.085 37.2095 22.9541C34.1102 22.0561 30.8576 21.9252 27.7071 22.5051C25.7317 22.8792 21.9511 22.8792 21.3721 25.648H21.3892Z" fill="#413E49"/>
<path d="M78.9997 41.5493C78.9486 41.7364 78.8805 41.9235 78.7443 42.0544C78.3015 42.5034 77.6203 42.0544 77.1776 41.6241C74.8956 39.4167 72.4263 37.415 69.8208 35.6752C68.2711 34.6275 66.6533 33.6735 65.3761 32.2517C65.1377 31.9898 64.8993 31.6343 65.0185 31.2976C65.1718 30.8299 65.7678 30.8486 66.1936 30.9609C69.2929 31.784 72.239 33.3554 74.7594 35.5068C76.3431 36.8724 79.6809 38.818 78.9827 41.568L78.9997 41.5493Z" fill="#413E49"/>
<path d="M31.7431 105.435C33.2587 108.054 35.3874 110.543 38.1632 111.122C41.7564 111.871 45.3326 109.102 47.0696 105.585C48.8066 102.049 49.1302 97.915 49.4026 93.9303C48.8918 95.2024 47.7338 96.4371 46.4565 97.1293C42.9314 99.0374 31.096 99.3554 25.3911 87.7007C25.5784 88.5238 29.1376 100.927 31.7261 105.454L31.7431 105.435Z" fill="#413E49"/>
<path d="M20.6229 37.1344C19.0732 40.2959 18.9029 44.1123 19.0562 47.7228C19.2264 51.6327 19.8054 55.6735 21.6787 58.8912C23.5519 62.1089 27.0259 64.2976 30.2615 63.3061C31.9134 62.801 33.3609 61.5102 34.4167 59.9201C35.4896 58.3486 36.2048 56.4779 36.7668 54.5697C37.8737 50.7721 38.3846 46.7313 38.2654 42.7279C38.2143 41.0442 38.044 39.3606 37.499 37.8078C36.1707 34.0663 32.7138 32.0272 29.359 32.3827C27.7752 32.551 26.1404 32.3265 24.6248 33.0374C22.9559 33.8044 21.5254 35.3197 20.6229 37.1344Z" fill="#FFF3E9"/>
<path d="M38.3335 42.7466C38.2824 41.0629 38.1121 39.3793 37.5672 37.8265C37.0733 36.4422 36.29 35.301 35.3363 34.4031C35.4896 34.7211 35.6429 35.0391 35.7621 35.3946C36.307 36.9473 36.4773 38.631 36.5284 40.3146C36.6646 44.318 36.1537 48.3589 35.0298 52.1565C34.4678 54.0646 33.7526 55.9167 32.6797 57.5068C31.6069 59.0782 30.1764 60.3691 28.5246 60.8929C26.0893 61.6412 23.5349 60.5936 21.6106 58.648C21.6617 58.7228 21.6957 58.8163 21.7468 58.8912C23.6201 62.1089 27.0941 64.2976 30.3297 63.3061C31.9815 62.801 33.429 61.5102 34.4849 59.9201C35.5577 58.3487 36.273 56.4779 36.8349 54.5697C37.9418 50.7721 38.4527 46.7313 38.3335 42.7279V42.7466Z" fill="#FFE7C0"/>
<path d="M19.022 44.5238C24.2331 40.3521 29.5803 41.0629 33.9569 44C35.5406 45.0663 36.6645 47.1803 37.499 48.4711C37.6693 47.2177 37.9758 42.9711 37.4479 41.8299C36.9881 40.8385 36.0685 40.1837 35.1319 39.7347C33.3949 38.9116 31.4706 38.6497 29.5803 38.6123C27.69 38.5748 25.7827 38.7619 23.9436 39.267C23.024 39.5102 22.1214 39.847 21.2529 40.2585C20.5547 40.5953 19.4137 41.0068 19.005 41.7551C18.8347 42.0544 18.8858 42.3725 18.9199 42.7092C18.971 43.3078 18.988 43.9252 19.022 44.5238Z" fill="#FFE7C0"/>
<path d="M22.8708 43.8316C22.2578 45.2347 22.1045 46.8435 22.1045 48.415C22.1045 50.4915 22.411 52.6803 23.4839 54.3265C24.5567 55.9915 26.5492 56.9456 28.184 56.1038C28.7119 55.8418 29.1547 55.4116 29.5634 54.9252C31.5047 52.6429 32.3733 49.182 31.7943 46.0391C31.5048 44.5238 30.8917 43.0646 29.8529 42.1106C27.6561 40.1089 24.148 40.932 22.8878 43.8316H22.8708Z" fill="#413E49"/>
<path d="M23.7904 46.7687C23.7564 47.199 23.7904 47.6854 24.0629 47.966C24.2162 48.1344 24.4376 48.1905 24.6589 48.1905C25.3912 48.1905 26.0383 47.6293 26.5322 46.9932C27.1452 46.2075 27.6391 45.2347 27.8264 44.1871C28.0989 42.5408 26.8387 41.3997 25.5445 42.2602C24.4205 43.0085 23.8926 45.4218 23.8075 46.7687H23.7904Z" fill="white"/>
<path d="M19.6692 38.0136C20.708 35.7687 22.3088 33.7483 24.3353 32.5136C26.0723 31.466 28.0648 30.9796 30.0572 30.9048C31.9134 30.8299 33.8377 31.1106 35.3704 32.1956C36.903 33.2619 37.9078 35.0578 38.4357 36.9286C38.9636 38.818 39.0317 40.8197 39.0147 42.784C38.9977 44.2619 38.9806 44.5238 38.8955 45.983C37.1074 44.4303 35.9835 41.7925 30.9257 39.8657C26.1404 38.0323 19.3627 38.631 18.375 45.983C18.5453 45.3657 18.358 43.1582 18.4942 42.4473C18.7837 40.8946 19.0051 39.4167 19.6692 37.9949V38.0136Z" fill="#75C973"/>
<path d="M38.4527 36.9847C37.9248 35.0953 36.9201 33.318 35.3874 32.233C34.6552 31.7092 33.8207 31.3912 32.9692 31.1854C34.3316 32.2704 35.2512 33.9354 35.745 35.6939C36.273 37.5834 36.3411 39.5851 36.324 41.5493C36.307 42.9524 36.3581 41.9609 36.29 43.2704C37.2096 43.9439 38.1292 45.3657 38.9295 46.0578C39.0147 44.5987 39.0147 44.318 39.0488 42.8589C39.0828 40.8759 38.9977 38.8742 38.4698 37.0034L38.4527 36.9847Z" fill="#DBECDE"/>
<path opacity="0.3" d="M22.5131 35.2262C21.1507 36.5544 20.146 38.2194 19.8054 40.034C19.7713 40.2398 19.8054 40.5391 20.0438 40.5391C20.163 40.5391 20.2481 40.4269 20.3163 40.3334C22.3428 37.5459 24.3863 34.6089 27.5197 32.9065C27.7752 32.7568 28.1157 32.5885 28.1328 32.2891C27.128 31.9711 26.0041 32.7568 25.1867 33.2245C24.199 33.7857 23.2964 34.4592 22.496 35.2262H22.5131Z" fill="white"/>
<path d="M48.1424 43.1395C45.9797 46.114 45.1112 50.0612 44.6514 53.8776C44.1405 57.9932 44.0383 62.3334 45.4348 66.0936C46.8312 69.8538 50.0838 72.8844 53.6259 72.5289C55.4481 72.3419 57.1681 71.3129 58.5645 69.8725C59.9609 68.4507 61.0337 66.6548 61.9533 64.784C63.7925 61.0425 65.0357 56.9456 65.5976 52.7177C65.836 50.9592 65.9553 49.1446 65.6487 47.4048C64.9165 43.2143 61.6638 40.3333 58.1047 40.0153C56.4188 39.8657 54.7499 39.2857 53.0299 39.6786C51.1567 40.1276 49.3856 41.3997 48.1424 43.1208V43.1395Z" fill="#FFF3E9"/>
<path d="M65.6657 52.7551C65.9041 50.9966 66.0233 49.182 65.7168 47.4422C65.4443 45.8895 64.8312 44.5238 63.9798 43.4014C64.0819 43.7755 64.1841 44.131 64.2522 44.5238C64.5588 46.2636 64.4396 48.0595 64.2011 49.8367C63.6392 54.0459 62.396 58.1616 60.5568 61.9031C59.6373 63.7738 58.5644 65.5697 57.168 66.9915C55.7716 68.4133 54.0516 69.4609 52.2294 69.648C49.5558 69.9099 47.0695 68.2823 45.4006 65.8503C45.4347 65.9439 45.4688 66.0374 45.5028 66.131C46.8992 69.8912 50.1518 72.9218 53.694 72.5663C55.5161 72.3793 57.2361 71.3503 58.6325 69.9099C60.0289 68.4881 61.1018 66.6922 62.0214 64.8214C63.8606 61.0799 65.1037 56.983 65.6657 52.7551Z" fill="#FFE7C0"/>
<path d="M45.1792 50.5289C51.3609 47.2738 56.8273 49.1446 60.8633 53.148C62.3279 54.5884 63.1282 57.0391 63.7754 58.5544C64.1841 57.2823 65.2399 52.9048 64.8823 51.614C64.5757 50.4728 63.7413 49.5936 62.8387 48.9388C61.1699 47.7041 59.2115 47.0306 57.236 46.5816C55.2606 46.1514 53.2512 45.9269 51.2417 46.0578C50.2369 46.114 49.2322 46.2636 48.2615 46.5255C47.4782 46.7313 46.218 46.9371 45.639 47.6106C45.4006 47.8912 45.4006 48.2279 45.3836 48.6021C45.3325 49.2381 45.2473 49.8742 45.1792 50.5102V50.5289Z" fill="#FFE7C0"/>
<path d="M49.3003 50.6037C48.4148 51.932 47.972 53.5969 47.6995 55.2245C47.3419 57.4133 47.2738 59.7517 48.1082 61.6973C48.9427 63.6616 50.85 65.0833 52.7062 64.5408C53.3022 64.3724 53.8472 64.017 54.341 63.6054C56.7762 61.6224 58.2919 58.199 58.2237 54.7942C58.1897 53.148 57.798 51.5017 56.8784 50.2857C54.9371 47.7228 51.1225 47.835 49.3003 50.6037Z" fill="#413E49"/>
<path d="M49.7431 53.8776C49.6409 54.3078 49.5728 54.8317 49.8112 55.1684C49.9474 55.3742 50.1688 55.4864 50.3902 55.5238C51.1565 55.6922 51.9228 55.2245 52.5529 54.682C53.3363 53.9898 54.0175 53.0919 54.3921 52.0255C54.9711 50.3606 53.8472 48.9014 52.3486 49.5374C51.0543 50.08 50.0666 52.4932 49.726 53.8963L49.7431 53.8776Z" fill="white"/>
<path d="M47.0014 43.8504C48.483 41.7177 50.4925 39.9592 52.8425 39.0799C54.835 38.3504 57.0148 38.2755 59.0924 38.6123C61.0337 38.9303 63.0091 39.6412 64.4226 41.1004C65.836 42.5408 66.5853 44.6174 66.7897 46.7126C67.011 48.7891 66.7386 50.9031 66.3639 52.9609C66.0915 54.4949 66.0233 54.7755 65.6828 56.2908C64.082 54.2891 63.3667 51.2959 58.4282 48.2092C53.7451 45.2908 46.5587 44.4677 44.2427 51.932C44.5322 51.3146 44.7195 48.9762 44.992 48.2653C45.571 46.7126 46.0648 45.216 47.0014 43.8691V43.8504Z" fill="#75C973"/>
<path d="M66.7897 46.75C66.5683 44.6735 65.836 42.597 64.4226 41.1378C63.7414 40.4456 62.941 39.9218 62.0725 39.5289C63.2986 40.9507 63.9798 42.8776 64.1671 44.8231C64.3885 46.8997 64.116 49.0136 63.7414 51.0714C63.4689 52.5306 63.7073 51.5204 63.4008 52.8487C64.2352 53.7466 64.9675 55.4303 65.6657 56.3095C66.0063 54.7942 66.0744 54.5136 66.3469 52.9796C66.7216 50.9218 66.994 48.8078 66.7726 46.7313L66.7897 46.75Z" fill="#DBECDE"/>
<path opacity="0.3" d="M50.4414 41.5493C48.7896 42.6531 47.4272 44.1871 46.7631 46.0017C46.6779 46.2075 46.6949 46.5442 46.9334 46.5816C47.0526 46.6004 47.1718 46.5068 47.2569 46.432C49.8624 43.9626 52.519 41.3248 56.0782 40.2024C56.3677 40.1089 56.7593 39.9966 56.8275 39.6786C55.8227 39.1174 54.5285 39.716 53.5919 40.034C52.4679 40.4082 51.3951 40.9133 50.4244 41.568L50.4414 41.5493Z" fill="white"/>
<path d="M30.4129 127.803C30.4343 127.761 30.4992 127.651 30.6141 127.533L31.5203 128.644C31.1943 128.625 30.8681 128.605 30.5419 128.585C30.4478 128.461 30.3993 128.352 30.3837 128.312C30.3257 128.163 30.3313 128.071 30.3321 128.058C30.3321 128.058 30.3321 128.057 30.3321 128.057C30.3321 128.057 30.3321 128.057 30.3322 128.056C30.3327 128.044 30.3368 127.949 30.4129 127.803Z" fill="white" stroke="white" stroke-width="3"/>
<path d="M36.0882 133.989L36.644 134.561C37.3493 133.751 38.0307 132.515 38.1132 130.976C38.1216 130.82 38.1232 130.67 38.1184 130.524C38.1184 130.524 38.1184 130.524 38.1184 130.524C38.0916 129.706 37.8668 129.04 37.5495 128.549L37.54 128.694L37.5398 128.697L36.3301 128.618L36.3277 128.618L36.043 128.599M36.0882 133.989C36.6796 133.416 37.5103 132.307 37.5622 130.946C37.5622 130.946 37.5622 130.946 37.5622 130.946C37.567 130.821 37.5652 130.693 37.556 130.564C37.4752 129.442 36.8656 128.855 36.3018 128.661C36.3011 128.661 36.3004 128.661 36.2996 128.661C36.2123 128.631 36.126 128.61 36.043 128.599M36.0882 133.989C35.9563 134.118 35.8215 134.233 35.6844 134.334C35.6841 134.334 35.6838 134.335 35.6835 134.335C35.4608 134.5 35.2323 134.629 35.0014 134.722L36.6435 134.562L36.0882 133.989ZM36.043 128.599L36.0435 128.595L36.1866 127.568C36.1864 127.568 36.1862 127.568 36.186 127.568C35.8137 127.505 35.4319 127.551 35.0497 127.597C34.6426 127.646 34.235 127.696 33.8377 127.614C33.7683 127.599 33.6992 127.581 33.6305 127.558M36.043 128.599L36.0432 128.595C35.9165 128.578 35.7895 128.571 35.6624 128.57L34.6617 128.504L34.719 128.352C34.7124 128.37 34.6902 128.427 34.6405 128.503L34.5465 128.497L34.5462 128.5L34.5456 128.509C34.5463 128.451 34.547 128.393 34.5477 128.335L33.6675 128.325L33.3827 128.322L33.5203 127.898L33.6305 127.558M33.6305 127.558L33.5171 127.896L33.3746 128.322L33.3164 127.821C33.3834 127.643 33.4951 127.514 33.6305 127.558Z" fill="white" stroke="white" stroke-width="3"/>
<path d="M55.5159 128.25C55.5373 128.209 55.6022 128.099 55.7172 127.981L56.6234 129.092C56.2973 129.073 55.9711 129.053 55.6449 129.033C55.5509 128.909 55.5024 128.8 55.4868 128.76C55.4288 128.61 55.4343 128.518 55.4351 128.506C55.4351 128.505 55.4351 128.505 55.4351 128.505C55.4352 128.505 55.4352 128.504 55.4352 128.504C55.4357 128.492 55.4398 128.397 55.5159 128.25Z" fill="white" stroke="white" stroke-width="3"/>
<path d="M61.193 134.437L61.7487 135.009C62.454 134.199 63.1354 132.963 63.218 131.423C63.2264 131.268 63.2279 131.118 63.2231 130.972C63.2231 130.972 63.2231 130.972 63.2231 130.972C63.1963 130.154 62.9715 129.488 62.6542 128.997L62.6447 129.142L62.6445 129.145L61.4348 129.065L61.4324 129.065L61.1477 129.047M61.193 134.437C61.7844 133.864 62.615 132.754 62.667 131.394C62.667 131.394 62.667 131.394 62.667 131.393C62.6717 131.268 62.6699 131.141 62.6607 131.012C62.58 129.89 61.9704 129.303 61.4065 129.109C61.4058 129.109 61.4051 129.109 61.4044 129.108C61.317 129.079 61.2307 129.058 61.1477 129.047M61.193 134.437C61.0611 134.565 60.9262 134.68 60.7892 134.782C60.7889 134.782 60.7886 134.782 60.7883 134.783C60.5655 134.948 60.337 135.077 60.1062 135.17L61.7482 135.01L61.193 134.437ZM61.1477 129.047L61.1482 129.043L61.2913 128.016C61.2911 128.016 61.291 128.016 61.2908 128.016C60.9184 127.953 60.5367 127.999 60.1544 128.045C59.7473 128.094 59.3397 128.143 58.9424 128.061C58.873 128.047 58.8039 128.029 58.7352 128.006M61.1477 129.047L61.148 129.043C61.0212 129.025 60.8942 129.018 60.7671 129.018L59.7665 128.952L59.8237 128.8C59.8171 128.818 59.7949 128.875 59.7452 128.951L59.6512 128.945L59.651 128.948L59.6504 128.957C59.6511 128.899 59.6518 128.841 59.6524 128.783L58.7722 128.773L58.4874 128.769L58.625 128.345L58.7352 128.006M58.7352 128.006L58.6218 128.344L58.4794 128.769L58.4212 128.269C58.4882 128.091 58.5999 127.962 58.7352 128.006Z" fill="white" stroke="white" stroke-width="3"/>
<mask id="path-31-inside-1_48_1009" fill="white">
<path d="M44.4387 142.468C43.5743 137.846 43.0005 133.009 42.7166 128.051C42.7123 127.977 42.6994 127.92 42.6843 127.87C42.7205 127.263 42.2431 127.011 42.1621 127.654C41.5286 132.688 40.58 137.607 39.3376 142.315C39.1729 142.941 39.6943 143.224 39.8586 142.604C40.246 141.142 40.6018 139.657 40.931 138.156C41.658 138.088 42.3868 138.02 43.1138 137.953C43.352 139.656 43.6229 141.336 43.9324 142.992C44.0485 143.608 44.5548 143.085 44.4406 142.468L44.4387 142.468ZM41.1563 137.085C41.6031 134.944 41.9915 132.768 42.3189 130.566C42.4818 132.712 42.6999 134.831 42.9721 136.914C42.3676 136.969 41.761 137.027 41.1565 137.082L41.1563 137.085Z"/>
</mask>
<path d="M44.4387 142.468C43.5743 137.846 43.0005 133.009 42.7166 128.051C42.7123 127.977 42.6994 127.92 42.6843 127.87C42.7205 127.263 42.2431 127.011 42.1621 127.654C41.5286 132.688 40.58 137.607 39.3376 142.315C39.1729 142.941 39.6943 143.224 39.8586 142.604C40.246 141.142 40.6018 139.657 40.931 138.156C41.658 138.088 42.3868 138.02 43.1138 137.953C43.352 139.656 43.6229 141.336 43.9324 142.992C44.0485 143.608 44.5548 143.085 44.4406 142.468L44.4387 142.468ZM41.1563 137.085C41.6031 134.944 41.9915 132.768 42.3189 130.566C42.4818 132.712 42.6999 134.831 42.9721 136.914C42.3676 136.969 41.761 137.027 41.1565 137.082L41.1563 137.085Z" fill="white"/>
<path d="M44.4387 142.468L41.4899 143.02L41.918 145.309L44.2418 145.462L44.4387 142.468ZM42.7166 128.051L45.7117 127.879L45.7114 127.874L42.7166 128.051ZM42.6843 127.87L39.6896 127.691L39.6576 128.226L39.813 128.739L42.6843 127.87ZM42.1621 127.654L39.1857 127.278L39.1856 127.279L42.1621 127.654ZM39.3376 142.315L36.4369 141.549L36.4362 141.552L39.3376 142.315ZM39.8586 142.604L42.7583 143.373L42.7585 143.373L39.8586 142.604ZM40.931 138.156L40.6529 135.168L38.4702 135.372L38.0006 137.513L40.931 138.156ZM43.1138 137.953L46.0849 137.537L45.6882 134.7L42.8357 134.965L43.1138 137.953ZM43.9324 142.992L40.9835 143.543L40.9842 143.546L43.9324 142.992ZM44.4406 142.468L47.3904 141.922L46.9654 139.628L44.6376 139.475L44.4406 142.468ZM41.1563 137.085L38.1627 136.888L44.093 137.698L41.1563 137.085ZM42.3189 130.566L45.3102 130.339L39.3515 130.125L42.3189 130.566ZM42.9721 136.914L43.2426 139.902L46.351 139.62L45.9468 136.525L42.9721 136.914ZM41.1565 137.082L40.8859 134.094L38.3314 134.325L38.163 136.885L41.1565 137.082ZM47.3876 141.917C46.5483 137.43 45.9888 132.72 45.7117 127.879L39.7215 128.222C40.0121 133.298 40.6002 138.263 41.4899 143.02L47.3876 141.917ZM45.7114 127.874C45.6906 127.521 45.6248 127.229 45.5555 127.001L39.813 128.739C39.7966 128.685 39.7755 128.607 39.7574 128.512C39.7392 128.417 39.7274 128.321 39.7218 128.228L45.7114 127.874ZM45.6789 128.049C45.7114 127.506 45.638 126.915 45.4014 126.343C45.1934 125.84 44.7181 125.035 43.7401 124.577C43.2127 124.33 42.5412 124.194 41.8135 124.332C41.0869 124.47 40.5213 124.839 40.1309 125.241C39.4201 125.973 39.2416 126.835 39.1857 127.278L45.1386 128.029C45.1231 128.151 45.0347 128.804 44.435 129.421C44.1002 129.766 43.5955 130.101 42.9315 130.227C42.2663 130.354 41.6592 130.228 41.1942 130.01C40.3412 129.61 39.9835 128.942 39.8573 128.637C39.7026 128.263 39.6753 127.931 39.6896 127.691L45.6789 128.049ZM39.1856 127.279C38.568 132.187 37.6441 136.975 36.4369 141.549L42.2382 143.08C43.5159 138.24 44.4891 133.19 45.1386 128.028L39.1856 127.279ZM36.4362 141.552C36.2035 142.437 36.1206 144.507 38.0302 145.556C39.1567 146.175 40.4836 146.041 41.4562 145.33C42.286 144.722 42.6204 143.893 42.7583 143.373L36.9588 141.835C37.0146 141.625 37.2222 140.993 37.9132 140.487C38.747 139.877 39.923 139.75 40.9192 140.297C41.7652 140.762 42.105 141.493 42.2229 141.93C42.3526 142.411 42.308 142.815 42.2389 143.078L36.4362 141.552ZM42.7585 143.373C43.1582 141.864 43.5241 140.336 43.8614 138.798L38.0006 137.513C37.6796 138.977 37.3338 140.42 36.9586 141.836L42.7585 143.373ZM41.2091 141.143C41.5723 141.109 41.9359 141.075 42.2999 141.041C42.6638 141.007 43.0281 140.974 43.3919 140.94L42.8357 134.965C42.4726 134.999 42.1089 135.033 41.7449 135.067C41.381 135.101 41.0167 135.135 40.6529 135.168L41.2091 141.143ZM40.1427 138.368C40.3866 140.112 40.6648 141.838 40.9835 143.543L46.8813 142.44C46.5811 140.834 46.3174 139.199 46.0849 137.537L40.1427 138.368ZM40.9842 143.546C41.0524 143.909 41.3635 145.322 42.8408 145.99C44.6194 146.795 46.0094 145.711 46.4269 145.281C47.3384 144.34 47.5941 143.021 47.3904 141.922L41.4908 143.015C41.4013 142.532 41.461 141.783 42.1188 141.104C42.4095 140.805 43.6583 139.775 45.313 140.523C46.6662 141.135 46.8705 142.382 46.8807 142.437L40.9842 143.546ZM44.6376 139.475L44.6357 139.475L44.2418 145.462L44.2436 145.462L44.6376 139.475ZM44.093 137.698C44.5519 135.499 44.9504 133.266 45.2862 131.007L39.3515 130.125C39.0326 132.27 38.6544 134.389 38.2196 136.472L44.093 137.698ZM39.3275 130.793C39.4944 132.992 39.7181 135.165 39.9973 137.303L45.9468 136.525C45.6818 134.497 45.4691 132.432 45.3102 130.339L39.3275 130.793ZM42.7015 133.926C42.3947 133.954 42.088 133.983 41.7859 134.011C41.4825 134.039 41.1836 134.067 40.8859 134.094L41.4271 140.069C41.7339 140.042 42.0405 140.013 42.3426 139.985C42.646 139.957 42.9449 139.929 43.2426 139.902L42.7015 133.926ZM38.163 136.885L38.1627 136.888L44.1498 137.282L44.15 137.279L38.163 136.885Z" fill="white" mask="url(#path-31-inside-1_48_1009)"/>
<mask id="path-33-inside-2_48_1009" fill="white">
<path d="M51.475 137.586C51.335 135.287 50.1221 134.223 49.0306 133.92C48.1437 133.673 46.1437 133.786 46.7394 130.98C47.346 128.121 49.5589 128.61 50.7844 128.053C51.1397 127.891 51.0463 126.873 50.691 127.035C49.4731 127.589 48.1253 127.286 47.028 128.779C46.19 129.918 45.7147 132.295 46.449 133.712C47.2063 135.173 48.5784 134.657 49.5564 135.229C50.1226 135.561 50.6695 136.241 50.8645 137.339C51.0492 138.37 50.824 139.58 50.4335 140.444C49.3441 142.854 47.4778 142.364 46.1234 141.966C45.7797 141.867 45.5751 142.876 45.9222 142.979C47.1878 143.353 48.5288 143.704 49.7919 142.575C50.8004 141.676 51.5994 139.673 51.4727 137.592L51.475 137.586Z"/>
</mask>
<path d="M51.475 137.586C51.335 135.287 50.1221 134.223 49.0306 133.92C48.1437 133.673 46.1437 133.786 46.7394 130.98C47.346 128.121 49.5589 128.61 50.7844 128.053C51.1397 127.891 51.0463 126.873 50.691 127.035C49.4731 127.589 48.1253 127.286 47.028 128.779C46.19 129.918 45.7147 132.295 46.449 133.712C47.2063 135.173 48.5784 134.657 49.5564 135.229C50.1226 135.561 50.6695 136.241 50.8645 137.339C51.0492 138.37 50.824 139.58 50.4335 140.444C49.3441 142.854 47.4778 142.364 46.1234 141.966C45.7797 141.867 45.5751 142.876 45.9222 142.979C47.1878 143.353 48.5288 143.704 49.7919 142.575C50.8004 141.676 51.5994 139.673 51.4727 137.592L51.475 137.586Z" fill="white"/>
<path d="M51.475 137.586L54.3195 138.539L54.5049 137.986L54.4695 137.403L51.475 137.586ZM49.0306 133.92L48.2245 136.81L48.2285 136.811L49.0306 133.92ZM46.7394 130.98L49.6741 131.602L49.6741 131.602L46.7394 130.98ZM50.7844 128.053L52.0248 130.785L52.0298 130.782L50.7844 128.053ZM50.691 127.035L51.9322 129.766L51.9364 129.764L50.691 127.035ZM47.028 128.779L49.4442 130.557L49.4452 130.556L47.028 128.779ZM46.449 133.712L43.7854 135.092L43.7857 135.093L46.449 133.712ZM49.5564 135.229L51.0716 132.64L51.0709 132.64L49.5564 135.229ZM50.8645 137.339L47.9108 137.863L47.9116 137.868L50.8645 137.339ZM50.4335 140.444L47.7 139.208L47.6998 139.208L50.4335 140.444ZM46.1234 141.966L46.9676 139.088L46.9587 139.085L46.1234 141.966ZM45.9222 142.979L45.066 145.854L45.0723 145.856L45.9222 142.979ZM49.7919 142.575L47.7945 140.337L47.7935 140.338L49.7919 142.575ZM51.4727 137.592L48.6282 136.639L48.4428 137.192L48.4782 137.775L51.4727 137.592ZM54.4695 137.403C54.2584 133.937 52.2614 131.704 49.8327 131.03L48.2285 136.811C48.1797 136.798 48.1936 136.784 48.2366 136.84C48.2727 136.887 48.4415 137.127 48.4805 137.768L54.4695 137.403ZM49.8367 131.031C49.7005 130.993 49.5754 130.964 49.4762 130.943C49.3769 130.922 49.2817 130.904 49.2081 130.89C49.0397 130.858 48.9586 130.844 48.8719 130.824C48.7952 130.807 48.7753 130.799 48.7877 130.803C48.8014 130.808 48.8759 130.836 48.9796 130.905C49.089 130.977 49.223 131.089 49.3464 131.249C49.4717 131.412 49.5499 131.578 49.5924 131.718C49.6706 131.976 49.5884 132.006 49.6741 131.602L43.8048 130.357C43.5926 131.357 43.537 132.425 43.8503 133.459C44.1889 134.576 44.8778 135.387 45.6784 135.915C46.4001 136.39 47.1345 136.583 47.5574 136.678C47.7736 136.727 47.9896 136.766 48.098 136.786C48.2462 136.814 48.2546 136.819 48.2245 136.81L49.8367 131.031ZM49.6741 131.602C49.744 131.273 49.8119 131.254 49.7354 131.344C49.6533 131.44 49.5715 131.467 49.6188 131.448C49.7215 131.408 49.8679 131.372 50.3036 131.286C50.6087 131.225 51.3416 131.095 52.0248 130.785L49.544 125.321C49.6144 125.289 49.6111 125.306 49.1377 125.4C48.7948 125.468 48.1203 125.593 47.4408 125.858C46.7058 126.144 45.8805 126.619 45.1746 127.445C44.4743 128.264 44.0382 129.257 43.8048 130.357L49.6741 131.602ZM52.0298 130.782C53.2524 130.224 53.6923 129.154 53.8365 128.687C54.0071 128.133 54.0325 127.594 53.9916 127.148C53.9564 126.765 53.8372 126.053 53.3545 125.37C53.0939 125.002 52.6054 124.477 51.808 124.196C50.9401 123.89 50.0935 124.01 49.4456 124.306L51.9364 129.764C51.3773 130.02 50.6113 130.136 49.8152 129.855C49.0896 129.6 48.6639 129.129 48.4564 128.836C48.08 128.304 48.0286 127.826 48.0167 127.697C47.9992 127.505 48.0036 127.241 48.1028 126.919C48.1757 126.683 48.494 125.801 49.5389 125.324L52.0298 130.782ZM49.4498 124.304C49.4198 124.318 49.3379 124.349 49.0829 124.408C48.9174 124.447 48.3971 124.553 47.9848 124.672C46.907 124.982 45.6527 125.585 44.6108 127.002L49.4452 130.556C49.5075 130.471 49.5264 130.471 49.4996 130.488C49.4832 130.498 49.5048 130.478 49.6437 130.438C49.8577 130.376 49.9713 130.361 50.4353 130.254C50.8099 130.167 51.3532 130.029 51.9322 129.766L49.4498 124.304ZM44.6119 127.001C43.8265 128.068 43.3617 129.45 43.1796 130.713C43.0007 131.954 43.0186 133.613 43.7854 135.092L49.1126 132.332C49.1424 132.389 49.1129 132.359 49.0958 132.194C49.0795 132.036 49.0819 131.821 49.1182 131.569C49.1542 131.32 49.2171 131.079 49.292 130.878C49.3287 130.78 49.3645 130.701 49.3949 130.642C49.426 130.582 49.4449 130.556 49.4442 130.557L44.6119 127.001ZM43.7857 135.093C44.1927 135.878 44.7537 136.518 45.4587 136.985C46.1337 137.433 46.8003 137.628 47.2651 137.732C47.4941 137.783 47.7079 137.819 47.8534 137.843C48.023 137.871 48.1026 137.884 48.1831 137.899C48.3363 137.93 48.2233 137.925 48.0419 137.819L51.0709 132.64C50.4005 132.248 49.7493 132.093 49.3465 132.013C49.149 131.974 48.9462 131.942 48.8329 131.923C48.6955 131.901 48.6258 131.888 48.5748 131.876C48.4798 131.855 48.6002 131.869 48.7743 131.985C48.9785 132.12 49.0841 132.277 49.1124 132.331L43.7857 135.093ZM48.0412 137.819C47.9159 137.745 47.863 137.675 47.8516 137.658C47.8378 137.637 47.8797 137.689 47.9108 137.863L53.8183 136.814C53.4867 134.947 52.4774 133.463 51.0716 132.64L48.0412 137.819ZM47.9116 137.868C47.9339 137.992 47.9428 138.214 47.8988 138.503C47.8554 138.789 47.7752 139.041 47.7 139.208L53.1671 141.68C53.7583 140.372 54.1284 138.545 53.8175 136.81L47.9116 137.868ZM47.6998 139.208C47.5752 139.484 47.509 139.5 47.5874 139.436C47.6248 139.405 47.6772 139.371 47.7401 139.343C47.8017 139.316 47.8529 139.304 47.8832 139.299C47.9321 139.291 47.8931 139.307 47.7114 139.276C47.5232 139.245 47.3054 139.187 46.9676 139.088L45.2792 144.845C45.8755 145.02 47.3237 145.476 48.8724 145.217C50.7679 144.9 52.2707 143.663 53.1672 141.679L47.6998 139.208ZM46.9587 139.085C45.1346 138.556 43.9047 139.73 43.5045 140.26C43.0839 140.816 42.903 141.405 42.8224 141.806C42.7392 142.221 42.6909 142.796 42.8324 143.423C42.9538 143.962 43.4424 145.371 45.066 145.854L46.7784 140.104C48.2284 140.536 48.6124 141.78 48.6853 142.103C48.7783 142.515 48.7375 142.825 48.705 142.987C48.6752 143.136 48.5882 143.484 48.2918 143.877C48.0158 144.242 46.9403 145.327 45.288 144.848L46.9587 139.085ZM45.0723 145.856C46.2409 146.201 49.1737 147.15 51.7903 144.813L47.7935 140.338C47.7396 140.386 47.7389 140.373 47.7885 140.354C47.8352 140.337 47.8591 140.34 47.8276 140.341C47.7851 140.341 47.6862 140.335 47.4989 140.296C47.3048 140.255 47.0856 140.194 46.772 140.102L45.0723 145.856ZM51.7892 144.814C53.6393 143.163 54.6356 140.177 54.4672 137.41L48.4782 137.775C48.5156 138.388 48.4144 139.006 48.2308 139.523C48.1405 139.778 48.0393 139.982 47.9472 140.13C47.8517 140.285 47.7898 140.341 47.7945 140.337L51.7892 144.814ZM54.3172 138.546L54.3195 138.539L48.6305 136.632L48.6282 136.639L54.3172 138.546Z" fill="white" mask="url(#path-33-inside-2_48_1009)"/>
</g>
<defs>
<clipPath id="clip0_48_1009">
<rect width="133" height="165" fill="white" transform="translate(0.800537)"/>
</clipPath>
</defs>
</svg>
